# xmcd
#
# Track frame offsets: 
#        150
#        16401
#        33685
#        50157
#        66287
#        84073
#        94529
#        106457
#        125364
#        140678
#        159622
#        179317
#        197094
#
# Disc length: 2833 seconds
#
# Revision: 0
# Processed by: cddbd v1.5.1PL0 Copyright (c) Steve Scherf et al.
# Submitted via: ExactAudioCopy v0.95b2
#
DISCID=b10b0f0d
DTITLE=Пьеха Стас - Одна Звезда
DYEAR=2005
DGENRE=Pop
TTITLE0=Одна Звезда
TTITLE1=Ты Грустишь (дуэт с Валерией)
TTITLE2=Где Буду Я
TTITLE3=Уличная Фея
TTITLE4=Город Детства
TTITLE5=Где Буду Я (Remix)
TTITLE6=О, Боже
TTITLE7=Кто Тому Виной
TTITLE8=Вверх - Вниз
TTITLE9=Солнце На Губах
TTITLE10=Вдоль По Небу
TTITLE11=Город Детства (дуэт с Эдита Пьеха)
TTITLE12=Ты Грустишь (Remix)
EXTD=
EXTT0=
EXTT1=
EXTT2=
EXTT3=
EXTT4=
EXTT5=
EXTT6=
EXTT7=
EXTT8=
EXTT9=
EXTT10=
EXTT11=
EXTT12=
PLAYORDER=
